<svg xmlns="http://www.w3.org/2000/svg" xmlns:xlink="http://www.w3.org/1999/xlink" width="144" height="168" viewBox="0 0 144 168">
  <defs>
    <clipPath id="clip-path">
      <rect width="144" height="168" fill="none"/>
    </clipPath>
  </defs>
  <g id="Repeat_Grid_2" data-name="Repeat Grid 2" clip-path="url(#clip-path)">
    <g transform="translate(-66 -1054)">
      <rect id="Rectangle_13" data-name="Rectangle 13" width="4" height="4" rx="2" transform="translate(66 1054)" fill="#e9ac18"/>
    </g>
    <g transform="translate(-54 -1054)">
      <rect id="Rectangle_13-2" data-name="Rectangle 13" width="4" height="4" rx="2" transform="translate(66 1054)" fill="#e9ac18"/>
    </g>
    <g transform="translate(-42 -1054)">
      <rect id="Rectangle_13-3" data-name="Rectangle 13" width="4" height="4" rx="2" transform="translate(66 1054)" fill="#e9ac18"/>
    </g>
    <g transform="translate(-30 -1054)">
      <rect id="Rectangle_13-4" data-name="Rectangle 13" width="4" height="4" rx="2" transform="translate(66 1054)" fill="#e9ac18"/>
    </g>
    <g transform="translate(-18 -1054)">
      <rect id="Rectangle_13-5" data-name="Rectangle 13" width="4" height="4" rx="2" transform="translate(66 1054)" fill="#e9ac18"/>
    </g>
    <g transform="translate(-6 -1054)">
      <rect id="Rectangle_13-6" data-name="Rectangle 13" width="4" height="4" rx="2" transform="translate(66 1054)" fill="#e9ac18"/>
    </g>
    <g transform="translate(6 -1054)">
      <rect id="Rectangle_13-7" data-name="Rectangle 13" width="4" height="4" rx="2" transform="translate(66 1054)" fill="#e9ac18"/>
    </g>
    <g transform="translate(18 -1054)">
      <rect id="Rectangle_13-8" data-name="Rectangle 13" width="4" height="4" rx="2" transform="translate(66 1054)" fill="#e9ac18"/>
    </g>
    <g transform="translate(30 -1054)">
      <rect id="Rectangle_13-9" data-name="Rectangle 13" width="4" height="4" rx="2" transform="translate(66 1054)" fill="#e9ac18"/>
    </g>
    <g transform="translate(42 -1054)">
      <rect id="Rectangle_13-10" data-name="Rectangle 13" width="4" height="4" rx="2" transform="translate(66 1054)" fill="#e9ac18"/>
    </g>
    <g transform="translate(54 -1054)">
      <rect id="Rectangle_13-11" data-name="Rectangle 13" width="4" height="4" rx="2" transform="translate(66 1054)" fill="#e9ac18"/>
    </g>
    <g transform="translate(66 -1054)">
      <rect id="Rectangle_13-12" data-name="Rectangle 13" width="4" height="4" rx="2" transform="translate(66 1054)" fill="#e9ac18"/>
    </g>
    <g transform="translate(-66 -1044)">
      <rect id="Rectangle_13-13" data-name="Rectangle 13" width="4" height="4" rx="2" transform="translate(66 1054)" fill="#e9ac18"/>
    </g>
    <g transform="translate(-54 -1044)">
      <rect id="Rectangle_13-14" data-name="Rectangle 13" width="4" height="4" rx="2" transform="translate(66 1054)" fill="#e9ac18"/>
    </g>
    <g transform="translate(-42 -1044)">
      <rect id="Rectangle_13-15" data-name="Rectangle 13" width="4" height="4" rx="2" transform="translate(66 1054)" fill="#e9ac18"/>
    </g>
    <g transform="translate(-30 -1044)">
      <rect id="Rectangle_13-16" data-name="Rectangle 13" width="4" height="4" rx="2" transform="translate(66 1054)" fill="#e9ac18"/>
    </g>
    <g transform="translate(-18 -1044)">
      <rect id="Rectangle_13-17" data-name="Rectangle 13" width="4" height="4" rx="2" transform="translate(66 1054)" fill="#e9ac18"/>
    </g>
    <g transform="translate(-6 -1044)">
      <rect id="Rectangle_13-18" data-name="Rectangle 13" width="4" height="4" rx="2" transform="translate(66 1054)" fill="#e9ac18"/>
    </g>
    <g transform="translate(6 -1044)">
      <rect id="Rectangle_13-19" data-name="Rectangle 13" width="4" height="4" rx="2" transform="translate(66 1054)" fill="#e9ac18"/>
    </g>
    <g transform="translate(18 -1044)">
      <rect id="Rectangle_13-20" data-name="Rectangle 13" width="4" height="4" rx="2" transform="translate(66 1054)" fill="#e9ac18"/>
    </g>
    <g transform="translate(30 -1044)">
      <rect id="Rectangle_13-21" data-name="Rectangle 13" width="4" height="4" rx="2" transform="translate(66 1054)" fill="#e9ac18"/>
    </g>
    <g transform="translate(42 -1044)">
      <rect id="Rectangle_13-22" data-name="Rectangle 13" width="4" height="4" rx="2" transform="translate(66 1054)" fill="#e9ac18"/>
    </g>
    <g transform="translate(54 -1044)">
      <rect id="Rectangle_13-23" data-name="Rectangle 13" width="4" height="4" rx="2" transform="translate(66 1054)" fill="#e9ac18"/>
    </g>
    <g transform="translate(66 -1044)">
      <rect id="Rectangle_13-24" data-name="Rectangle 13" width="4" height="4" rx="2" transform="translate(66 1054)" fill="#e9ac18"/>
    </g>
    <g transform="translate(-66 -1034)">
      <rect id="Rectangle_13-25" data-name="Rectangle 13" width="4" height="4" rx="2" transform="translate(66 1054)" fill="#e9ac18"/>
    </g>
    <g transform="translate(-54 -1034)">
      <rect id="Rectangle_13-26" data-name="Rectangle 13" width="4" height="4" rx="2" transform="translate(66 1054)" fill="#e9ac18"/>
    </g>
    <g transform="translate(-42 -1034)">
      <rect id="Rectangle_13-27" data-name="Rectangle 13" width="4" height="4" rx="2" transform="translate(66 1054)" fill="#e9ac18"/>
    </g>
    <g transform="translate(-30 -1034)">
      <rect id="Rectangle_13-28" data-name="Rectangle 13" width="4" height="4" rx="2" transform="translate(66 1054)" fill="#e9ac18"/>
    </g>
    <g transform="translate(-18 -1034)">
      <rect id="Rectangle_13-29" data-name="Rectangle 13" width="4" height="4" rx="2" transform="translate(66 1054)" fill="#e9ac18"/>
    </g>
    <g transform="translate(-6 -1034)">
      <rect id="Rectangle_13-30" data-name="Rectangle 13" width="4" height="4" rx="2" transform="translate(66 1054)" fill="#e9ac18"/>
    </g>
    <g transform="translate(6 -1034)">
      <rect id="Rectangle_13-31" data-name="Rectangle 13" width="4" height="4" rx="2" transform="translate(66 1054)" fill="#e9ac18"/>
    </g>
    <g transform="translate(18 -1034)">
      <rect id="Rectangle_13-32" data-name="Rectangle 13" width="4" height="4" rx="2" transform="translate(66 1054)" fill="#e9ac18"/>
    </g>
    <g transform="translate(30 -1034)">
      <rect id="Rectangle_13-33" data-name="Rectangle 13" width="4" height="4" rx="2" transform="translate(66 1054)" fill="#e9ac18"/>
    </g>
    <g transform="translate(42 -1034)">
      <rect id="Rectangle_13-34" data-name="Rectangle 13" width="4" height="4" rx="2" transform="translate(66 1054)" fill="#e9ac18"/>
    </g>
    <g transform="translate(54 -1034)">
      <rect id="Rectangle_13-35" data-name="Rectangle 13" width="4" height="4" rx="2" transform="translate(66 1054)" fill="#e9ac18"/>
    </g>
    <g transform="translate(66 -1034)">
      <rect id="Rectangle_13-36" data-name="Rectangle 13" width="4" height="4" rx="2" transform="translate(66 1054)" fill="#e9ac18"/>
    </g>
    <g transform="translate(-66 -1024)">
      <rect id="Rectangle_13-37" data-name="Rectangle 13" width="4" height="4" rx="2" transform="translate(66 1054)" fill="#e9ac18"/>
    </g>
    <g transform="translate(-54 -1024)">
      <rect id="Rectangle_13-38" data-name="Rectangle 13" width="4" height="4" rx="2" transform="translate(66 1054)" fill="#e9ac18"/>
    </g>
    <g transform="translate(-42 -1024)">
      <rect id="Rectangle_13-39" data-name="Rectangle 13" width="4" height="4" rx="2" transform="translate(66 1054)" fill="#e9ac18"/>
    </g>
    <g transform="translate(-30 -1024)">
      <rect id="Rectangle_13-40" data-name="Rectangle 13" width="4" height="4" rx="2" transform="translate(66 1054)" fill="#e9ac18"/>
    </g>
    <g transform="translate(-18 -1024)">
      <rect id="Rectangle_13-41" data-name="Rectangle 13" width="4" height="4" rx="2" transform="translate(66 1054)" fill="#e9ac18"/>
    </g>
    <g transform="translate(-6 -1024)">
      <rect id="Rectangle_13-42" data-name="Rectangle 13" width="4" height="4" rx="2" transform="translate(66 1054)" fill="#e9ac18"/>
    </g>
    <g transform="translate(6 -1024)">
      <rect id="Rectangle_13-43" data-name="Rectangle 13" width="4" height="4" rx="2" transform="translate(66 1054)" fill="#e9ac18"/>
    </g>
    <g transform="translate(18 -1024)">
      <rect id="Rectangle_13-44" data-name="Rectangle 13" width="4" height="4" rx="2" transform="translate(66 1054)" fill="#e9ac18"/>
    </g>
    <g transform="translate(30 -1024)">
      <rect id="Rectangle_13-45" data-name="Rectangle 13" width="4" height="4" rx="2" transform="translate(66 1054)" fill="#e9ac18"/>
    </g>
    <g transform="translate(42 -1024)">
      <rect id="Rectangle_13-46" data-name="Rectangle 13" width="4" height="4" rx="2" transform="translate(66 1054)" fill="#e9ac18"/>
    </g>
    <g transform="translate(54 -1024)">
      <rect id="Rectangle_13-47" data-name="Rectangle 13" width="4" height="4" rx="2" transform="translate(66 1054)" fill="#e9ac18"/>
    </g>
    <g transform="translate(66 -1024)">
      <rect id="Rectangle_13-48" data-name="Rectangle 13" width="4" height="4" rx="2" transform="translate(66 1054)" fill="#e9ac18"/>
    </g>
    <g transform="translate(-66 -1014)">
      <rect id="Rectangle_13-49" data-name="Rectangle 13" width="4" height="4" rx="2" transform="translate(66 1054)" fill="#e9ac18"/>
    </g>
    <g transform="translate(-54 -1014)">
      <rect id="Rectangle_13-50" data-name="Rectangle 13" width="4" height="4" rx="2" transform="translate(66 1054)" fill="#e9ac18"/>
    </g>
    <g transform="translate(-42 -1014)">
      <rect id="Rectangle_13-51" data-name="Rectangle 13" width="4" height="4" rx="2" transform="translate(66 1054)" fill="#e9ac18"/>
    </g>
    <g transform="translate(-30 -1014)">
      <rect id="Rectangle_13-52" data-name="Rectangle 13" width="4" height="4" rx="2" transform="translate(66 1054)" fill="#e9ac18"/>
    </g>
    <g transform="translate(-18 -1014)">
      <rect id="Rectangle_13-53" data-name="Rectangle 13" width="4" height="4" rx="2" transform="translate(66 1054)" fill="#e9ac18"/>
    </g>
    <g transform="translate(-6 -1014)">
      <rect id="Rectangle_13-54" data-name="Rectangle 13" width="4" height="4" rx="2" transform="translate(66 1054)" fill="#e9ac18"/>
    </g>
    <g transform="translate(6 -1014)">
      <rect id="Rectangle_13-55" data-name="Rectangle 13" width="4" height="4" rx="2" transform="translate(66 1054)" fill="#e9ac18"/>
    </g>
    <g transform="translate(18 -1014)">
      <rect id="Rectangle_13-56" data-name="Rectangle 13" width="4" height="4" rx="2" transform="translate(66 1054)" fill="#e9ac18"/>
    </g>
    <g transform="translate(30 -1014)">
      <rect id="Rectangle_13-57" data-name="Rectangle 13" width="4" height="4" rx="2" transform="translate(66 1054)" fill="#e9ac18"/>
    </g>
    <g transform="translate(42 -1014)">
      <rect id="Rectangle_13-58" data-name="Rectangle 13" width="4" height="4" rx="2" transform="translate(66 1054)" fill="#e9ac18"/>
    </g>
    <g transform="translate(54 -1014)">
      <rect id="Rectangle_13-59" data-name="Rectangle 13" width="4" height="4" rx="2" transform="translate(66 1054)" fill="#e9ac18"/>
    </g>
    <g transform="translate(66 -1014)">
      <rect id="Rectangle_13-60" data-name="Rectangle 13" width="4" height="4" rx="2" transform="translate(66 1054)" fill="#e9ac18"/>
    </g>
    <g transform="translate(-66 -1004)">
      <rect id="Rectangle_13-61" data-name="Rectangle 13" width="4" height="4" rx="2" transform="translate(66 1054)" fill="#e9ac18"/>
    </g>
    <g transform="translate(-54 -1004)">
      <rect id="Rectangle_13-62" data-name="Rectangle 13" width="4" height="4" rx="2" transform="translate(66 1054)" fill="#e9ac18"/>
    </g>
    <g transform="translate(-42 -1004)">
      <rect id="Rectangle_13-63" data-name="Rectangle 13" width="4" height="4" rx="2" transform="translate(66 1054)" fill="#e9ac18"/>
    </g>
    <g transform="translate(-30 -1004)">
      <rect id="Rectangle_13-64" data-name="Rectangle 13" width="4" height="4" rx="2" transform="translate(66 1054)" fill="#e9ac18"/>
    </g>
    <g transform="translate(-18 -1004)">
      <rect id="Rectangle_13-65" data-name="Rectangle 13" width="4" height="4" rx="2" transform="translate(66 1054)" fill="#e9ac18"/>
    </g>
    <g transform="translate(-6 -1004)">
      <rect id="Rectangle_13-66" data-name="Rectangle 13" width="4" height="4" rx="2" transform="translate(66 1054)" fill="#e9ac18"/>
    </g>
    <g transform="translate(6 -1004)">
      <rect id="Rectangle_13-67" data-name="Rectangle 13" width="4" height="4" rx="2" transform="translate(66 1054)" fill="#e9ac18"/>
    </g>
    <g transform="translate(18 -1004)">
      <rect id="Rectangle_13-68" data-name="Rectangle 13" width="4" height="4" rx="2" transform="translate(66 1054)" fill="#e9ac18"/>
    </g>
    <g transform="translate(30 -1004)">
      <rect id="Rectangle_13-69" data-name="Rectangle 13" width="4" height="4" rx="2" transform="translate(66 1054)" fill="#e9ac18"/>
    </g>
    <g transform="translate(42 -1004)">
      <rect id="Rectangle_13-70" data-name="Rectangle 13" width="4" height="4" rx="2" transform="translate(66 1054)" fill="#e9ac18"/>
    </g>
    <g transform="translate(54 -1004)">
      <rect id="Rectangle_13-71" data-name="Rectangle 13" width="4" height="4" rx="2" transform="translate(66 1054)" fill="#e9ac18"/>
    </g>
    <g transform="translate(66 -1004)">
      <rect id="Rectangle_13-72" data-name="Rectangle 13" width="4" height="4" rx="2" transform="translate(66 1054)" fill="#e9ac18"/>
    </g>
    <g transform="translate(-66 -994)">
      <rect id="Rectangle_13-73" data-name="Rectangle 13" width="4" height="4" rx="2" transform="translate(66 1054)" fill="#e9ac18"/>
    </g>
    <g transform="translate(-54 -994)">
      <rect id="Rectangle_13-74" data-name="Rectangle 13" width="4" height="4" rx="2" transform="translate(66 1054)" fill="#e9ac18"/>
    </g>
    <g transform="translate(-42 -994)">
      <rect id="Rectangle_13-75" data-name="Rectangle 13" width="4" height="4" rx="2" transform="translate(66 1054)" fill="#e9ac18"/>
    </g>
    <g transform="translate(-30 -994)">
      <rect id="Rectangle_13-76" data-name="Rectangle 13" width="4" height="4" rx="2" transform="translate(66 1054)" fill="#e9ac18"/>
    </g>
    <g transform="translate(-18 -994)">
      <rect id="Rectangle_13-77" data-name="Rectangle 13" width="4" height="4" rx="2" transform="translate(66 1054)" fill="#e9ac18"/>
    </g>
    <g transform="translate(-6 -994)">
      <rect id="Rectangle_13-78" data-name="Rectangle 13" width="4" height="4" rx="2" transform="translate(66 1054)" fill="#e9ac18"/>
    </g>
    <g transform="translate(6 -994)">
      <rect id="Rectangle_13-79" data-name="Rectangle 13" width="4" height="4" rx="2" transform="translate(66 1054)" fill="#e9ac18"/>
    </g>
    <g transform="translate(18 -994)">
      <rect id="Rectangle_13-80" data-name="Rectangle 13" width="4" height="4" rx="2" transform="translate(66 1054)" fill="#e9ac18"/>
    </g>
    <g transform="translate(30 -994)">
      <rect id="Rectangle_13-81" data-name="Rectangle 13" width="4" height="4" rx="2" transform="translate(66 1054)" fill="#e9ac18"/>
    </g>
    <g transform="translate(42 -994)">
      <rect id="Rectangle_13-82" data-name="Rectangle 13" width="4" height="4" rx="2" transform="translate(66 1054)" fill="#e9ac18"/>
    </g>
    <g transform="translate(54 -994)">
      <rect id="Rectangle_13-83" data-name="Rectangle 13" width="4" height="4" rx="2" transform="translate(66 1054)" fill="#e9ac18"/>
    </g>
    <g transform="translate(66 -994)">
      <rect id="Rectangle_13-84" data-name="Rectangle 13" width="4" height="4" rx="2" transform="translate(66 1054)" fill="#e9ac18"/>
    </g>
    <g transform="translate(-66 -984)">
      <rect id="Rectangle_13-85" data-name="Rectangle 13" width="4" height="4" rx="2" transform="translate(66 1054)" fill="#e9ac18"/>
    </g>
    <g transform="translate(-54 -984)">
      <rect id="Rectangle_13-86" data-name="Rectangle 13" width="4" height="4" rx="2" transform="translate(66 1054)" fill="#e9ac18"/>
    </g>
    <g transform="translate(-42 -984)">
      <rect id="Rectangle_13-87" data-name="Rectangle 13" width="4" height="4" rx="2" transform="translate(66 1054)" fill="#e9ac18"/>
    </g>
    <g transform="translate(-30 -984)">
      <rect id="Rectangle_13-88" data-name="Rectangle 13" width="4" height="4" rx="2" transform="translate(66 1054)" fill="#e9ac18"/>
    </g>
    <g transform="translate(-18 -984)">
      <rect id="Rectangle_13-89" data-name="Rectangle 13" width="4" height="4" rx="2" transform="translate(66 1054)" fill="#e9ac18"/>
    </g>
    <g transform="translate(-6 -984)">
      <rect id="Rectangle_13-90" data-name="Rectangle 13" width="4" height="4" rx="2" transform="translate(66 1054)" fill="#e9ac18"/>
    </g>
    <g transform="translate(6 -984)">
      <rect id="Rectangle_13-91" data-name="Rectangle 13" width="4" height="4" rx="2" transform="translate(66 1054)" fill="#e9ac18"/>
    </g>
    <g transform="translate(18 -984)">
      <rect id="Rectangle_13-92" data-name="Rectangle 13" width="4" height="4" rx="2" transform="translate(66 1054)" fill="#e9ac18"/>
    </g>
    <g transform="translate(30 -984)">
      <rect id="Rectangle_13-93" data-name="Rectangle 13" width="4" height="4" rx="2" transform="translate(66 1054)" fill="#e9ac18"/>
    </g>
    <g transform="translate(42 -984)">
      <rect id="Rectangle_13-94" data-name="Rectangle 13" width="4" height="4" rx="2" transform="translate(66 1054)" fill="#e9ac18"/>
    </g>
    <g transform="translate(54 -984)">
      <rect id="Rectangle_13-95" data-name="Rectangle 13" width="4" height="4" rx="2" transform="translate(66 1054)" fill="#e9ac18"/>
    </g>
    <g transform="translate(66 -984)">
      <rect id="Rectangle_13-96" data-name="Rectangle 13" width="4" height="4" rx="2" transform="translate(66 1054)" fill="#e9ac18"/>
    </g>
    <g transform="translate(-66 -974)">
      <rect id="Rectangle_13-97" data-name="Rectangle 13" width="4" height="4" rx="2" transform="translate(66 1054)" fill="#e9ac18"/>
    </g>
    <g transform="translate(-54 -974)">
      <rect id="Rectangle_13-98" data-name="Rectangle 13" width="4" height="4" rx="2" transform="translate(66 1054)" fill="#e9ac18"/>
    </g>
    <g transform="translate(-42 -974)">
      <rect id="Rectangle_13-99" data-name="Rectangle 13" width="4" height="4" rx="2" transform="translate(66 1054)" fill="#e9ac18"/>
    </g>
    <g transform="translate(-30 -974)">
      <rect id="Rectangle_13-100" data-name="Rectangle 13" width="4" height="4" rx="2" transform="translate(66 1054)" fill="#e9ac18"/>
    </g>
    <g transform="translate(-18 -974)">
      <rect id="Rectangle_13-101" data-name="Rectangle 13" width="4" height="4" rx="2" transform="translate(66 1054)" fill="#e9ac18"/>
    </g>
    <g transform="translate(-6 -974)">
      <rect id="Rectangle_13-102" data-name="Rectangle 13" width="4" height="4" rx="2" transform="translate(66 1054)" fill="#e9ac18"/>
    </g>
    <g transform="translate(6 -974)">
      <rect id="Rectangle_13-103" data-name="Rectangle 13" width="4" height="4" rx="2" transform="translate(66 1054)" fill="#e9ac18"/>
    </g>
    <g transform="translate(18 -974)">
      <rect id="Rectangle_13-104" data-name="Rectangle 13" width="4" height="4" rx="2" transform="translate(66 1054)" fill="#e9ac18"/>
    </g>
    <g transform="translate(30 -974)">
      <rect id="Rectangle_13-105" data-name="Rectangle 13" width="4" height="4" rx="2" transform="translate(66 1054)" fill="#e9ac18"/>
    </g>
    <g transform="translate(42 -974)">
      <rect id="Rectangle_13-106" data-name="Rectangle 13" width="4" height="4" rx="2" transform="translate(66 1054)" fill="#e9ac18"/>
    </g>
    <g transform="translate(54 -974)">
      <rect id="Rectangle_13-107" data-name="Rectangle 13" width="4" height="4" rx="2" transform="translate(66 1054)" fill="#e9ac18"/>
    </g>
    <g transform="translate(66 -974)">
      <rect id="Rectangle_13-108" data-name="Rectangle 13" width="4" height="4" rx="2" transform="translate(66 1054)" fill="#e9ac18"/>
    </g>
    <g transform="translate(-66 -964)">
      <rect id="Rectangle_13-109" data-name="Rectangle 13" width="4" height="4" rx="2" transform="translate(66 1054)" fill="#e9ac18"/>
    </g>
    <g transform="translate(-54 -964)">
      <rect id="Rectangle_13-110" data-name="Rectangle 13" width="4" height="4" rx="2" transform="translate(66 1054)" fill="#e9ac18"/>
    </g>
    <g transform="translate(-42 -964)">
      <rect id="Rectangle_13-111" data-name="Rectangle 13" width="4" height="4" rx="2" transform="translate(66 1054)" fill="#e9ac18"/>
    </g>
    <g transform="translate(-30 -964)">
      <rect id="Rectangle_13-112" data-name="Rectangle 13" width="4" height="4" rx="2" transform="translate(66 1054)" fill="#e9ac18"/>
    </g>
    <g transform="translate(-18 -964)">
      <rect id="Rectangle_13-113" data-name="Rectangle 13" width="4" height="4" rx="2" transform="translate(66 1054)" fill="#e9ac18"/>
    </g>
    <g transform="translate(-6 -964)">
      <rect id="Rectangle_13-114" data-name="Rectangle 13" width="4" height="4" rx="2" transform="translate(66 1054)" fill="#e9ac18"/>
    </g>
    <g transform="translate(6 -964)">
      <rect id="Rectangle_13-115" data-name="Rectangle 13" width="4" height="4" rx="2" transform="translate(66 1054)" fill="#e9ac18"/>
    </g>
    <g transform="translate(18 -964)">
      <rect id="Rectangle_13-116" data-name="Rectangle 13" width="4" height="4" rx="2" transform="translate(66 1054)" fill="#e9ac18"/>
    </g>
    <g transform="translate(30 -964)">
      <rect id="Rectangle_13-117" data-name="Rectangle 13" width="4" height="4" rx="2" transform="translate(66 1054)" fill="#e9ac18"/>
    </g>
    <g transform="translate(42 -964)">
      <rect id="Rectangle_13-118" data-name="Rectangle 13" width="4" height="4" rx="2" transform="translate(66 1054)" fill="#e9ac18"/>
    </g>
    <g transform="translate(54 -964)">
      <rect id="Rectangle_13-119" data-name="Rectangle 13" width="4" height="4" rx="2" transform="translate(66 1054)" fill="#e9ac18"/>
    </g>
    <g transform="translate(66 -964)">
      <rect id="Rectangle_13-120" data-name="Rectangle 13" width="4" height="4" rx="2" transform="translate(66 1054)" fill="#e9ac18"/>
    </g>
    <g transform="translate(-66 -954)">
      <rect id="Rectangle_13-121" data-name="Rectangle 13" width="4" height="4" rx="2" transform="translate(66 1054)" fill="#e9ac18"/>
    </g>
    <g transform="translate(-54 -954)">
      <rect id="Rectangle_13-122" data-name="Rectangle 13" width="4" height="4" rx="2" transform="translate(66 1054)" fill="#e9ac18"/>
    </g>
    <g transform="translate(-42 -954)">
      <rect id="Rectangle_13-123" data-name="Rectangle 13" width="4" height="4" rx="2" transform="translate(66 1054)" fill="#e9ac18"/>
    </g>
    <g transform="translate(-30 -954)">
      <rect id="Rectangle_13-124" data-name="Rectangle 13" width="4" height="4" rx="2" transform="translate(66 1054)" fill="#e9ac18"/>
    </g>
    <g transform="translate(-18 -954)">
      <rect id="Rectangle_13-125" data-name="Rectangle 13" width="4" height="4" rx="2" transform="translate(66 1054)" fill="#e9ac18"/>
    </g>
    <g transform="translate(-6 -954)">
      <rect id="Rectangle_13-126" data-name="Rectangle 13" width="4" height="4" rx="2" transform="translate(66 1054)" fill="#e9ac18"/>
    </g>
    <g transform="translate(6 -954)">
      <rect id="Rectangle_13-127" data-name="Rectangle 13" width="4" height="4" rx="2" transform="translate(66 1054)" fill="#e9ac18"/>
    </g>
    <g transform="translate(18 -954)">
      <rect id="Rectangle_13-128" data-name="Rectangle 13" width="4" height="4" rx="2" transform="translate(66 1054)" fill="#e9ac18"/>
    </g>
    <g transform="translate(30 -954)">
      <rect id="Rectangle_13-129" data-name="Rectangle 13" width="4" height="4" rx="2" transform="translate(66 1054)" fill="#e9ac18"/>
    </g>
    <g transform="translate(42 -954)">
      <rect id="Rectangle_13-130" data-name="Rectangle 13" width="4" height="4" rx="2" transform="translate(66 1054)" fill="#e9ac18"/>
    </g>
    <g transform="translate(54 -954)">
      <rect id="Rectangle_13-131" data-name="Rectangle 13" width="4" height="4" rx="2" transform="translate(66 1054)" fill="#e9ac18"/>
    </g>
    <g transform="translate(66 -954)">
      <rect id="Rectangle_13-132" data-name="Rectangle 13" width="4" height="4" rx="2" transform="translate(66 1054)" fill="#e9ac18"/>
    </g>
    <g transform="translate(-66 -944)">
      <rect id="Rectangle_13-133" data-name="Rectangle 13" width="4" height="4" rx="2" transform="translate(66 1054)" fill="#e9ac18"/>
    </g>
    <g transform="translate(-54 -944)">
      <rect id="Rectangle_13-134" data-name="Rectangle 13" width="4" height="4" rx="2" transform="translate(66 1054)" fill="#e9ac18"/>
    </g>
    <g transform="translate(-42 -944)">
      <rect id="Rectangle_13-135" data-name="Rectangle 13" width="4" height="4" rx="2" transform="translate(66 1054)" fill="#e9ac18"/>
    </g>
    <g transform="translate(-30 -944)">
      <rect id="Rectangle_13-136" data-name="Rectangle 13" width="4" height="4" rx="2" transform="translate(66 1054)" fill="#e9ac18"/>
    </g>
    <g transform="translate(-18 -944)">
      <rect id="Rectangle_13-137" data-name="Rectangle 13" width="4" height="4" rx="2" transform="translate(66 1054)" fill="#e9ac18"/>
    </g>
    <g transform="translate(-6 -944)">
      <rect id="Rectangle_13-138" data-name="Rectangle 13" width="4" height="4" rx="2" transform="translate(66 1054)" fill="#e9ac18"/>
    </g>
    <g transform="translate(6 -944)">
      <rect id="Rectangle_13-139" data-name="Rectangle 13" width="4" height="4" rx="2" transform="translate(66 1054)" fill="#e9ac18"/>
    </g>
    <g transform="translate(18 -944)">
      <rect id="Rectangle_13-140" data-name="Rectangle 13" width="4" height="4" rx="2" transform="translate(66 1054)" fill="#e9ac18"/>
    </g>
    <g transform="translate(30 -944)">
      <rect id="Rectangle_13-141" data-name="Rectangle 13" width="4" height="4" rx="2" transform="translate(66 1054)" fill="#e9ac18"/>
    </g>
    <g transform="translate(42 -944)">
      <rect id="Rectangle_13-142" data-name="Rectangle 13" width="4" height="4" rx="2" transform="translate(66 1054)" fill="#e9ac18"/>
    </g>
    <g transform="translate(54 -944)">
      <rect id="Rectangle_13-143" data-name="Rectangle 13" width="4" height="4" rx="2" transform="translate(66 1054)" fill="#e9ac18"/>
    </g>
    <g transform="translate(66 -944)">
      <rect id="Rectangle_13-144" data-name="Rectangle 13" width="4" height="4" rx="2" transform="translate(66 1054)" fill="#e9ac18"/>
    </g>
    <g transform="translate(-66 -934)">
      <rect id="Rectangle_13-145" data-name="Rectangle 13" width="4" height="4" rx="2" transform="translate(66 1054)" fill="#e9ac18"/>
    </g>
    <g transform="translate(-54 -934)">
      <rect id="Rectangle_13-146" data-name="Rectangle 13" width="4" height="4" rx="2" transform="translate(66 1054)" fill="#e9ac18"/>
    </g>
    <g transform="translate(-42 -934)">
      <rect id="Rectangle_13-147" data-name="Rectangle 13" width="4" height="4" rx="2" transform="translate(66 1054)" fill="#e9ac18"/>
    </g>
    <g transform="translate(-30 -934)">
      <rect id="Rectangle_13-148" data-name="Rectangle 13" width="4" height="4" rx="2" transform="translate(66 1054)" fill="#e9ac18"/>
    </g>
    <g transform="translate(-18 -934)">
      <rect id="Rectangle_13-149" data-name="Rectangle 13" width="4" height="4" rx="2" transform="translate(66 1054)" fill="#e9ac18"/>
    </g>
    <g transform="translate(-6 -934)">
      <rect id="Rectangle_13-150" data-name="Rectangle 13" width="4" height="4" rx="2" transform="translate(66 1054)" fill="#e9ac18"/>
    </g>
    <g transform="translate(6 -934)">
      <rect id="Rectangle_13-151" data-name="Rectangle 13" width="4" height="4" rx="2" transform="translate(66 1054)" fill="#e9ac18"/>
    </g>
    <g transform="translate(18 -934)">
      <rect id="Rectangle_13-152" data-name="Rectangle 13" width="4" height="4" rx="2" transform="translate(66 1054)" fill="#e9ac18"/>
    </g>
    <g transform="translate(30 -934)">
      <rect id="Rectangle_13-153" data-name="Rectangle 13" width="4" height="4" rx="2" transform="translate(66 1054)" fill="#e9ac18"/>
    </g>
    <g transform="translate(42 -934)">
      <rect id="Rectangle_13-154" data-name="Rectangle 13" width="4" height="4" rx="2" transform="translate(66 1054)" fill="#e9ac18"/>
    </g>
    <g transform="translate(54 -934)">
      <rect id="Rectangle_13-155" data-name="Rectangle 13" width="4" height="4" rx="2" transform="translate(66 1054)" fill="#e9ac18"/>
    </g>
    <g transform="translate(66 -934)">
      <rect id="Rectangle_13-156" data-name="Rectangle 13" width="4" height="4" rx="2" transform="translate(66 1054)" fill="#e9ac18"/>
    </g>
    <g transform="translate(-66 -924)">
      <rect id="Rectangle_13-157" data-name="Rectangle 13" width="4" height="4" rx="2" transform="translate(66 1054)" fill="#e9ac18"/>
    </g>
    <g transform="translate(-54 -924)">
      <rect id="Rectangle_13-158" data-name="Rectangle 13" width="4" height="4" rx="2" transform="translate(66 1054)" fill="#e9ac18"/>
    </g>
    <g transform="translate(-42 -924)">
      <rect id="Rectangle_13-159" data-name="Rectangle 13" width="4" height="4" rx="2" transform="translate(66 1054)" fill="#e9ac18"/>
    </g>
    <g transform="translate(-30 -924)">
      <rect id="Rectangle_13-160" data-name="Rectangle 13" width="4" height="4" rx="2" transform="translate(66 1054)" fill="#e9ac18"/>
    </g>
    <g transform="translate(-18 -924)">
      <rect id="Rectangle_13-161" data-name="Rectangle 13" width="4" height="4" rx="2" transform="translate(66 1054)" fill="#e9ac18"/>
    </g>
    <g transform="translate(-6 -924)">
      <rect id="Rectangle_13-162" data-name="Rectangle 13" width="4" height="4" rx="2" transform="translate(66 1054)" fill="#e9ac18"/>
    </g>
    <g transform="translate(6 -924)">
      <rect id="Rectangle_13-163" data-name="Rectangle 13" width="4" height="4" rx="2" transform="translate(66 1054)" fill="#e9ac18"/>
    </g>
    <g transform="translate(18 -924)">
      <rect id="Rectangle_13-164" data-name="Rectangle 13" width="4" height="4" rx="2" transform="translate(66 1054)" fill="#e9ac18"/>
    </g>
    <g transform="translate(30 -924)">
      <rect id="Rectangle_13-165" data-name="Rectangle 13" width="4" height="4" rx="2" transform="translate(66 1054)" fill="#e9ac18"/>
    </g>
    <g transform="translate(42 -924)">
      <rect id="Rectangle_13-166" data-name="Rectangle 13" width="4" height="4" rx="2" transform="translate(66 1054)" fill="#e9ac18"/>
    </g>
    <g transform="translate(54 -924)">
      <rect id="Rectangle_13-167" data-name="Rectangle 13" width="4" height="4" rx="2" transform="translate(66 1054)" fill="#e9ac18"/>
    </g>
    <g transform="translate(66 -924)">
      <rect id="Rectangle_13-168" data-name="Rectangle 13" width="4" height="4" rx="2" transform="translate(66 1054)" fill="#e9ac18"/>
    </g>
    <g transform="translate(-66 -914)">
      <rect id="Rectangle_13-169" data-name="Rectangle 13" width="4" height="4" rx="2" transform="translate(66 1054)" fill="#e9ac18"/>
    </g>
    <g transform="translate(-54 -914)">
      <rect id="Rectangle_13-170" data-name="Rectangle 13" width="4" height="4" rx="2" transform="translate(66 1054)" fill="#e9ac18"/>
    </g>
    <g transform="translate(-42 -914)">
      <rect id="Rectangle_13-171" data-name="Rectangle 13" width="4" height="4" rx="2" transform="translate(66 1054)" fill="#e9ac18"/>
    </g>
    <g transform="translate(-30 -914)">
      <rect id="Rectangle_13-172" data-name="Rectangle 13" width="4" height="4" rx="2" transform="translate(66 1054)" fill="#e9ac18"/>
    </g>
    <g transform="translate(-18 -914)">
      <rect id="Rectangle_13-173" data-name="Rectangle 13" width="4" height="4" rx="2" transform="translate(66 1054)" fill="#e9ac18"/>
    </g>
    <g transform="translate(-6 -914)">
      <rect id="Rectangle_13-174" data-name="Rectangle 13" width="4" height="4" rx="2" transform="translate(66 1054)" fill="#e9ac18"/>
    </g>
    <g transform="translate(6 -914)">
      <rect id="Rectangle_13-175" data-name="Rectangle 13" width="4" height="4" rx="2" transform="translate(66 1054)" fill="#e9ac18"/>
    </g>
    <g transform="translate(18 -914)">
      <rect id="Rectangle_13-176" data-name="Rectangle 13" width="4" height="4" rx="2" transform="translate(66 1054)" fill="#e9ac18"/>
    </g>
    <g transform="translate(30 -914)">
      <rect id="Rectangle_13-177" data-name="Rectangle 13" width="4" height="4" rx="2" transform="translate(66 1054)" fill="#e9ac18"/>
    </g>
    <g transform="translate(42 -914)">
      <rect id="Rectangle_13-178" data-name="Rectangle 13" width="4" height="4" rx="2" transform="translate(66 1054)" fill="#e9ac18"/>
    </g>
    <g transform="translate(54 -914)">
      <rect id="Rectangle_13-179" data-name="Rectangle 13" width="4" height="4" rx="2" transform="translate(66 1054)" fill="#e9ac18"/>
    </g>
    <g transform="translate(66 -914)">
      <rect id="Rectangle_13-180" data-name="Rectangle 13" width="4" height="4" rx="2" transform="translate(66 1054)" fill="#e9ac18"/>
    </g>
    <g transform="translate(-66 -904)">
      <rect id="Rectangle_13-181" data-name="Rectangle 13" width="4" height="4" rx="2" transform="translate(66 1054)" fill="#e9ac18"/>
    </g>
    <g transform="translate(-54 -904)">
      <rect id="Rectangle_13-182" data-name="Rectangle 13" width="4" height="4" rx="2" transform="translate(66 1054)" fill="#e9ac18"/>
    </g>
    <g transform="translate(-42 -904)">
      <rect id="Rectangle_13-183" data-name="Rectangle 13" width="4" height="4" rx="2" transform="translate(66 1054)" fill="#e9ac18"/>
    </g>
    <g transform="translate(-30 -904)">
      <rect id="Rectangle_13-184" data-name="Rectangle 13" width="4" height="4" rx="2" transform="translate(66 1054)" fill="#e9ac18"/>
    </g>
    <g transform="translate(-18 -904)">
      <rect id="Rectangle_13-185" data-name="Rectangle 13" width="4" height="4" rx="2" transform="translate(66 1054)" fill="#e9ac18"/>
    </g>
    <g transform="translate(-6 -904)">
      <rect id="Rectangle_13-186" data-name="Rectangle 13" width="4" height="4" rx="2" transform="translate(66 1054)" fill="#e9ac18"/>
    </g>
    <g transform="translate(6 -904)">
      <rect id="Rectangle_13-187" data-name="Rectangle 13" width="4" height="4" rx="2" transform="translate(66 1054)" fill="#e9ac18"/>
    </g>
    <g transform="translate(18 -904)">
      <rect id="Rectangle_13-188" data-name="Rectangle 13" width="4" height="4" rx="2" transform="translate(66 1054)" fill="#e9ac18"/>
    </g>
    <g transform="translate(30 -904)">
      <rect id="Rectangle_13-189" data-name="Rectangle 13" width="4" height="4" rx="2" transform="translate(66 1054)" fill="#e9ac18"/>
    </g>
    <g transform="translate(42 -904)">
      <rect id="Rectangle_13-190" data-name="Rectangle 13" width="4" height="4" rx="2" transform="translate(66 1054)" fill="#e9ac18"/>
    </g>
    <g transform="translate(54 -904)">
      <rect id="Rectangle_13-191" data-name="Rectangle 13" width="4" height="4" rx="2" transform="translate(66 1054)" fill="#e9ac18"/>
    </g>
    <g transform="translate(66 -904)">
      <rect id="Rectangle_13-192" data-name="Rectangle 13" width="4" height="4" rx="2" transform="translate(66 1054)" fill="#e9ac18"/>
    </g>
    <g transform="translate(-66 -894)">
      <rect id="Rectangle_13-193" data-name="Rectangle 13" width="4" height="4" rx="2" transform="translate(66 1054)" fill="#e9ac18"/>
    </g>
    <g transform="translate(-54 -894)">
      <rect id="Rectangle_13-194" data-name="Rectangle 13" width="4" height="4" rx="2" transform="translate(66 1054)" fill="#e9ac18"/>
    </g>
    <g transform="translate(-42 -894)">
      <rect id="Rectangle_13-195" data-name="Rectangle 13" width="4" height="4" rx="2" transform="translate(66 1054)" fill="#e9ac18"/>
    </g>
    <g transform="translate(-30 -894)">
      <rect id="Rectangle_13-196" data-name="Rectangle 13" width="4" height="4" rx="2" transform="translate(66 1054)" fill="#e9ac18"/>
    </g>
    <g transform="translate(-18 -894)">
      <rect id="Rectangle_13-197" data-name="Rectangle 13" width="4" height="4" rx="2" transform="translate(66 1054)" fill="#e9ac18"/>
    </g>
    <g transform="translate(-6 -894)">
      <rect id="Rectangle_13-198" data-name="Rectangle 13" width="4" height="4" rx="2" transform="translate(66 1054)" fill="#e9ac18"/>
    </g>
    <g transform="translate(6 -894)">
      <rect id="Rectangle_13-199" data-name="Rectangle 13" width="4" height="4" rx="2" transform="translate(66 1054)" fill="#e9ac18"/>
    </g>
    <g transform="translate(18 -894)">
      <rect id="Rectangle_13-200" data-name="Rectangle 13" width="4" height="4" rx="2" transform="translate(66 1054)" fill="#e9ac18"/>
    </g>
    <g transform="translate(30 -894)">
      <rect id="Rectangle_13-201" data-name="Rectangle 13" width="4" height="4" rx="2" transform="translate(66 1054)" fill="#e9ac18"/>
    </g>
    <g transform="translate(42 -894)">
      <rect id="Rectangle_13-202" data-name="Rectangle 13" width="4" height="4" rx="2" transform="translate(66 1054)" fill="#e9ac18"/>
    </g>
    <g transform="translate(54 -894)">
      <rect id="Rectangle_13-203" data-name="Rectangle 13" width="4" height="4" rx="2" transform="translate(66 1054)" fill="#e9ac18"/>
    </g>
    <g transform="translate(66 -894)">
      <rect id="Rectangle_13-204" data-name="Rectangle 13" width="4" height="4" rx="2" transform="translate(66 1054)" fill="#e9ac18"/>
    </g>
  </g>
</svg>
